<?xml version="1.0" encoding="UTF-8" standalone="no"?>
<!-- Created with Inkscape (http://www.inkscape.org/) -->

<svg
   xmlns:dc="http://purl.org/dc/elements/1.1/"
   xmlns:cc="http://creativecommons.org/ns#"
   xmlns:rdf="http://www.w3.org/1999/02/22-rdf-syntax-ns#"
   xmlns:svg="http://www.w3.org/2000/svg"
   xmlns="http://www.w3.org/2000/svg"
   xmlns:sodipodi="http://sodipodi.sourceforge.net/DTD/sodipodi-0.dtd"
   xmlns:inkscape="http://www.inkscape.org/namespaces/inkscape"
   width="210mm"
   height="297mm"
   id="svg2"
   version="1.1"
   inkscape:version="0.48.3.1 r9886"
   sodipodi:docname="Nuevo documento 1">
  <defs
     id="defs4" />
  <sodipodi:namedview
     id="base"
     pagecolor="#ffffff"
     bordercolor="#666666"
     borderopacity="1.0"
     inkscape:pageopacity="0.0"
     inkscape:pageshadow="2"
     inkscape:zoom="1.979899"
     inkscape:cx="445.16787"
     inkscape:cy="590.28933"
     inkscape:document-units="px"
     inkscape:current-layer="layer1"
     showgrid="false"
     inkscape:window-width="1280"
     inkscape:window-height="948"
     inkscape:window-x="0"
     inkscape:window-y="24"
     inkscape:window-maximized="1" />
  <metadata
     id="metadata7">
    <rdf:RDF>
      <cc:Work
         rdf:about="">
        <dc:format>image/svg+xml</dc:format>
        <dc:type
           rdf:resource="http://purl.org/dc/dcmitype/StillImage" />
        <dc:title></dc:title>
      </cc:Work>
    </rdf:RDF>
  </metadata>
  <g
     inkscape:label="Capa 1"
     inkscape:groupmode="layer"
     id="layer1">
    <path
       style="fill:#000000"
       d="m 391.95269,486.50345 c -4.5037,-3.78966 -5.4098,-8.58116 -4.7138,-24.927 0.3279,-7.7 0.8372,-31.1 1.1318,-52 0.6033,-42.79261 1.2749,-59.8136 2.486,-62.99888 1.0664,-2.80494 6.4354,-7.32121 9.6681,-8.13256 3.7988,-0.95344 9.5233,1.18979 12.9682,4.85518 1.6935,1.80194 11.5307,14.97626 21.8605,29.27626 10.3297,14.3 20.6571,28.55521 22.9497,31.67825 l 4.1682,5.67825 2.9429,-3.67447 c 1.6185,-2.02096 10.485,-13.57617 19.7033,-25.67825 9.2183,-12.10208 19.5683,-25.67814 23,-30.16902 3.4317,-4.49089 7.4339,-8.87839 8.8938,-9.75 3.9451,-2.35543 10.8871,-2.0304 14.9478,0.69987 5.4134,3.63975 5.9775,6.62884 5.4191,28.71537 -0.2711,10.725 -0.7365,35.475 -1.0342,55 -0.8485,55.64808 -1.0181,57.12621 -7.1019,61.9117 -3.2718,2.5736 -10.3754,2.7978 -14.3453,0.45276 -1.5228,-0.89955 -3.5673,-2.98738 -4.5433,-4.63964 -1.6566,-2.80442 -1.726,-5.83237 -1.044,-45.55696 l 0.7306,-42.55287 -10.1495,12.4425 c -5.5822,6.84338 -13.3859,16.49251 -17.3416,21.44251 -13.1163,16.41361 -17.9406,19.90933 -25.0229,18.13179 -4.5518,-1.14242 -7.8098,-4.99532 -23.9078,-28.27307 l -16.2613,-23.51391 -0.2737,6.32759 c -0.1505,3.48018 -0.6087,22.3026 -1.0181,41.8276 -0.6887,32.83574 -0.8933,35.75105 -2.7264,38.84517 -4.1836,7.06164 -15.5461,9.49597 -21.3862,4.58183 z m 134.9044,-5.427 c 2.9777,-2.97766 2.6667,-8.33043 -0.6349,-10.92742 -3.4137,-2.68527 -4.9158,-2.61274 -7.9106,0.38197 -4.5792,4.57926 -2.0104,12.54545 4.0455,12.54545 1.375,0 3.4,-0.9 4.5,-2 z M 407.40259,358.6219 c 1.4077,-1.4077 2.4545,-3.61929 2.4545,-5.18554 0,-3.40492 -3.5866,-7.35991 -6.6743,-7.35991 -6.0828,0 -8.6581,9.0202 -3.6908,12.92742 3.4137,2.68527 4.9159,2.61274 7.9106,-0.38197 z"
       id="path3007"
       inkscape:connector-curvature="0" />
  </g>
</svg>
