<?xml version="1.0" encoding="UTF-8" standalone="no"?>
<!-- Created with Inkscape (http://www.inkscape.org/) -->

<svg
   xmlns:dc="http://purl.org/dc/elements/1.1/"
   xmlns:cc="http://creativecommons.org/ns#"
   xmlns:rdf="http://www.w3.org/1999/02/22-rdf-syntax-ns#"
   xmlns:svg="http://www.w3.org/2000/svg"
   xmlns="http://www.w3.org/2000/svg"
   xmlns:sodipodi="http://sodipodi.sourceforge.net/DTD/sodipodi-0.dtd"
   xmlns:inkscape="http://www.inkscape.org/namespaces/inkscape"
   width="210mm"
   height="297mm"
   id="svg2"
   version="1.1"
   inkscape:version="0.48.3.1 r9886"
   sodipodi:docname="makespace.svg">
  <defs
     id="defs4" />
  <sodipodi:namedview
     id="base"
     pagecolor="#ffffff"
     bordercolor="#666666"
     borderopacity="1.0"
     inkscape:pageopacity="0.0"
     inkscape:pageshadow="2"
     inkscape:zoom="0.35"
     inkscape:cx="-1777.0761"
     inkscape:cy="1826.3074"
     inkscape:document-units="px"
     inkscape:current-layer="layer1"
     showgrid="false"
     inkscape:window-width="1280"
     inkscape:window-height="948"
     inkscape:window-x="0"
     inkscape:window-y="24"
     inkscape:window-maximized="1" />
  <metadata
     id="metadata7">
    <rdf:RDF>
      <cc:Work
         rdf:about="">
        <dc:format>image/svg+xml</dc:format>
        <dc:type
           rdf:resource="http://purl.org/dc/dcmitype/StillImage" />
        <dc:title></dc:title>
      </cc:Work>
    </rdf:RDF>
  </metadata>
  <g
     inkscape:label="Capa 1"
     inkscape:groupmode="layer"
     id="layer1">
    <path
       style="fill:#000000"
       d="m -2042.5,-916.53107 c -4.6719,-1.2165 -9.5,-8.2283 -9.5,-13.7965 0,-2.2159 6.0959,-14.8321 14.9904,-31.0246 1.5106,-2.75 5.1213,-9.5 8.0239,-15 2.9025,-5.5 8.5225,-16.075 12.4888,-23.5 3.9664,-7.42503 9.8121,-18.45003 12.9905,-24.50003 3.1784,-6.05 6.1106,-11.45 6.516,-12 0.4054,-0.55 3.0894,-5.6318 5.9644,-11.2928 7.5413,-14.8495 11.8319,-19.2072 18.9112,-19.2072 7.6401,0 10.5791,2.9245 17.5869,17.5 2.9088,6.05 12.8224,26.525 22.0302,45.5 9.2078,18.97503 20.3434,41.92503 24.7457,51.00003 9.1586,18.8792 10.2996,23.7598 6.8573,29.3296 -3.9996,6.4715 -14.0733,8.9739 -19.7594,4.9084 -1.8075,-1.2923 -4.8396,-6.0856 -8.3096,-13.1364 l -5.4637,-11.1016 -40.2492,0 -40.2492,0 -5.1338,10.25 c -5.1664,10.3149 -7.1461,13.2546 -9.9292,14.7439 -2.0804,1.1133 -10.0757,1.9615 -12.5112,1.3272 z m 10.2934,-10.1258 c 3.7817,-4.9566 1.3159,-11.4148 -4.5833,-12.0043 -6.638,-0.6632 -9.6706,7.4394 -4.6598,12.4502 2.8471,2.8471 6.8791,2.6526 9.2431,-0.4459 z m 82.2054,-45.4453 c -10e-4,-1.3014 -21.4272,-50.51183 -22.4285,-51.51313 -0.7876,-0.7875 -0.6078,-1.077 -7.3061,11.7631 -3.2996,6.325 -9.2089,17.65623 -13.1317,25.18053 -3.9229,7.5243 -7.1325,14.1618 -7.1325,14.75 0,0.7308 7.9176,1.0695 25,1.0695 19.334,0 24.9997,-0.2833 24.9988,-1.25 z m 172.3965,54.8743 c -1.8496,-0.8373 -5.9973,-5.1895 -10.2594,-10.765 -28.6797,-37.5178 -41.6501,-53.8593 -42.7485,-53.8593 -0.7007,0 -1.862,0.8386 -2.5807,1.8636 -0.7187,1.025 -4.9677,5.7737 -9.4422,10.5526 -5.1879,5.5407 -8.3581,9.8021 -8.75,11.7613 -0.338,1.6899 -0.6145,9.1057 -0.6145,16.4796 0,15.351 -1.0656,19.1931 -6.1898,22.3173 -3.9375,2.4006 -10.4111,2.637 -15.3783,0.5616 -6.9079,-2.8863 -6.7855,-1.3187 -5.5048,-70.5073 0.6264,-33.84083 1.3719,-63.40953 1.6566,-65.70833 1.5975,-12.897 18.824,-16.785 25.9799,-5.8637 1.4915,2.2763 1.6295,5.7394 1.2769,32.0477 -0.2174,16.2226 -0.1361,29.49563 0.1807,29.49563 0.3168,0 15.3896,-14.89843 33.495,-33.10753 18.1055,-18.2091 33.9754,-33.5091 35.2665,-34 10.9064,-4.1466 22.3085,6.8469 18.2292,17.5761 -0.5434,1.4294 -11.1764,12.9226 -23.6289,25.5405 l -22.6409,22.94173 7.5332,9.2746 c 34.1162,42.003 43.7718,54.3873 44.7757,57.4291 1.5687,4.7532 -0.8036,11.0009 -5.349,14.0872 -4.2357,2.876 -11.2161,3.7345 -15.3067,1.8826 z m -82.952,-7.8468 c 4.2869,-6.1205 -0.9526,-14.466 -7.4043,-11.7937 -7.2384,2.9983 -5.2266,14.0162 2.5593,14.0162 2.2644,0 3.773,-0.692 4.845,-2.2225 z M -1771,-1049.8522 c 2.7798,-2.7798 2.5757,-7.5152 -0.4546,-10.5455 -3.709,-3.709 -7.6345,-3.1167 -10.0288,1.5135 -3.7995,7.3474 4.778,14.7374 10.4834,9.032 z m 46.0711,132.26963 c -7.0562,-3.6416 -7.2139,-4.2948 -7.083,-29.3445 0.064,-12.3338 0.2863,-25.8001 0.4929,-29.9251 0.2066,-4.125 0.6725,-23.24663 1.0352,-42.49243 0.7241,-38.4194 0.9671,-40.0028 6.6736,-43.482 3.1837,-1.941 4.9455,-2.0183 46.0923,-2.0219 47.2599,0 48.1705,0.1034 51.2438,6.0464 2.3612,4.5659 2.2583,11.4216 -0.2213,14.7483 -4.7167,6.3281 -5.0545,6.3813 -41.5637,6.5489 l -33.2409,0.1527 -0.5,15.3039 c -0.275,8.4172 -0.275,15.8422 0,16.5 0.372,0.8898 8.0546,1.1961 30,1.1961 27.324,0 29.7066,0.14 32.3011,1.8985 8.3999,5.69313 7.3129,20.35793 -1.7909,24.16173 -2.7306,1.1409 -9.4732,1.4398 -32.4781,1.4398 l -29.0321,0 -0.071,10.25 c -0.039,5.6375 -0.2924,13.0414 -0.5628,16.4532 l -0.4917,6.2032 36.3128,0.2968 c 33.7341,0.2757 36.5118,0.4316 39.114,2.1953 8.0212,5.4365 7.4179,19.3528 -1.0266,23.6798 -2.2506,1.1532 -11.1771,1.4726 -47.2745,1.6913 -40.9282,0.248 -44.7753,0.1276 -47.929,-1.5 z m 93.5861,-6.8359 c 2.0628,-2.0628 2.4439,-3.178 1.9427,-5.6844 -1.313,-6.5646 -6.7999,-8.789 -11.2855,-4.575 -3.0681,2.8824 -3.0095,7.2215 0.1401,10.3711 3.1451,3.1451 5.9803,3.1107 9.2027,-0.1117 z m -78.2921,-61.5063 c 3.3326,-2.6214 3.5372,-7.338 0.4606,-10.6129 -5.6107,-5.97233 -14.2137,1.1669 -10.368,8.6038 2.3591,4.562 5.7801,5.2557 9.9074,2.0091 z m -502.4718,67.5757 c -2.8237,-1.5348 -5.2509,-4.7639 -6.099,-8.1141 -0.2939,-1.1611 0.06,-30.7794 0.7861,-65.8186 1.1961,-57.71283 1.4897,-64.04783 3.12,-67.32443 3.892,-7.8223 11.653,-9.925 18.9092,-5.123 3.4005,2.2503 20.2469,24.5931 48.3747,64.1577 4.0516,5.69893 2.5544,6.76393 16.5633,-11.7807 24.5784,-32.5363 37.4833,-49.1849 39.8367,-51.3937 3.7045,-3.4767 11.336,-4.0603 15.9341,-1.2185 6.802,4.2038 6.5603,1.0554 5.3442,69.61223 -0.9854,55.5504 -1.5805,68.4309 -3.317,71.7942 -3.3166,6.4236 -12.2763,8.5749 -18.4332,4.4258 -6.1515,-4.1455 -6.0318,-3.0422 -5.3941,-49.72 0.4773,-34.93603 0.3494,-42.22383 -0.7188,-40.94813 -0.7147,0.8535 -9.5815,11.75953 -19.704,24.23553 -20.116,24.7932 -23.4222,27.6243 -30.6726,26.2641 -5.9089,-1.1085 -7.3296,-2.8686 -34.9229,-43.26713 l -6,-8.7844 -0.6146,16.00003 c -0.338,8.8 -0.6781,25.675 -0.7558,37.5 -0.2024,30.8196 -1.2837,35.4086 -9.3299,39.595 -3.429,1.7841 -9.535,1.7406 -12.9064,-0.092 z m 133.55,-6.7256 c 2.4707,-3.5275 1.991,-8.2907 -1.0782,-10.7049 -1.4491,-1.1399 -3.1884,-2.0726 -3.8651,-2.0726 -0.6767,0 -2.416,0.9327 -3.8651,2.0726 -5.2561,4.1344 -2.3255,12.9274 4.3084,12.9274 1.9079,0 3.4909,-0.7818 4.5,-2.2225 z m -119.8978,-122.23203 c 3.1847,-3.1848 3.2089,-7.4882 0.059,-10.4477 -3.1077,-2.9195 -7.2562,-2.4725 -9.8855,1.0651 -2.2902,3.0816 -1.8039,6.7518 1.3068,9.8625 2.6509,2.6509 5.5526,2.4875 8.5201,-0.4799 z"
       id="path3071"
       inkscape:connector-curvature="0" />
  </g>
</svg>
