<?xml version="1.0" encoding="UTF-8" standalone="no"?>
<!-- Created with Inkscape (http://www.inkscape.org/) -->

<svg
   xmlns:dc="http://purl.org/dc/elements/1.1/"
   xmlns:cc="http://creativecommons.org/ns#"
   xmlns:rdf="http://www.w3.org/1999/02/22-rdf-syntax-ns#"
   xmlns:svg="http://www.w3.org/2000/svg"
   xmlns="http://www.w3.org/2000/svg"
   xmlns:sodipodi="http://sodipodi.sourceforge.net/DTD/sodipodi-0.dtd"
   xmlns:inkscape="http://www.inkscape.org/namespaces/inkscape"
   width="210mm"
   height="297mm"
   id="svg2"
   version="1.1"
   inkscape:version="0.48.3.1 r9886"
   sodipodi:docname="m.svg">
  <defs
     id="defs4" />
  <sodipodi:namedview
     id="base"
     pagecolor="#ffffff"
     bordercolor="#666666"
     borderopacity="1.0"
     inkscape:pageopacity="0.0"
     inkscape:pageshadow="2"
     inkscape:zoom="0.35"
     inkscape:cx="-1777.0761"
     inkscape:cy="1826.3074"
     inkscape:document-units="px"
     inkscape:current-layer="layer1"
     showgrid="false"
     inkscape:window-width="1280"
     inkscape:window-height="948"
     inkscape:window-x="0"
     inkscape:window-y="24"
     inkscape:window-maximized="1" />
  <metadata
     id="metadata7">
    <rdf:RDF>
      <cc:Work
         rdf:about="">
        <dc:format>image/svg+xml</dc:format>
        <dc:type
           rdf:resource="http://purl.org/dc/dcmitype/StillImage" />
        <dc:title></dc:title>
      </cc:Work>
    </rdf:RDF>
  </metadata>
  <g
     inkscape:label="Capa 1"
     inkscape:groupmode="layer"
     id="layer1">
    <path
       style="fill:#000000"
       d="m -666.49241,-1058.5546 c -330.8409,-0.4747 -348.63149,-0.5894 -351.09589,-2.264 -3.3915,-2.3048 -4.9041,-5.7892 -4.9041,-11.2977 0,-3.6929 0.5937,-5.1154 3.4237,-8.203 l 3.4238,-3.7353 614.32619,0 c 337.8795,0 632.2041,0.225 654.0548,0.5 l 39.7285,0.5 2.6311,2.6323 c 1.8124,1.8133 2.7924,4.0639 3.1497,7.2334 0.6474,5.744 -1.0406,10.0005 -5.1199,12.9103 l -3.1179,2.224 -304,0 c -167.2,0 -460.825,-0.225 -652.5,-0.5 z m 234.409,-5.8995 c 2.2863,-2.5263 2.3309,-7.6255 0.088,-10.1035 -3.6946,-4.0826 -11.4972,-1.1182 -11.4972,4.3681 0,6.1166 7.6045,9.9394 11.409,5.7354 z m -234.8636,-1.555 c 1.35,-1.35 2.4546,-3.6205 2.4546,-5.0455 0,-3.094 -4.0856,-7.5 -6.9546,-7.5 -5.5294,0 -8.1861,8.9277 -3.8568,12.961 2.8942,2.6964 5.3679,2.5734 8.3568,-0.4155 z m 427.8475,0.2045 c 3.6171,-3.2497 3.8571,-7.5 0.6071,-10.75 -2.6021,-2.6021 -5.7985,-2.5379 -8.6856,0.1743 -3.7198,3.4946 -2.6261,9.9544 2.001,11.8187 3.1492,1.2689 3.3206,1.2338 6.0775,-1.243 z m -642.1115,-1.9129 c 3.3549,-4.5141 0.3432,-10.8371 -5.1617,-10.8371 -4.1479,0 -6.292,2.0934 -6.41,6.2586 -0.2106,7.4298 7.2567,10.3843 11.5717,4.5785 z m 45.8899,1.5079 c 4.1075,-3.7173 1.1526,-12.345 -4.228,-12.345 -5.8543,0 -8.9283,6.7211 -5.3866,11.7775 1.8888,2.6966 6.9329,2.9944 9.6146,0.5675 z m 1044.7779,-1.1028 c 3.2769,-2.6535 3.088,-7.9533 -0.3902,-10.9451 -6.5968,-5.6743 -14.2939,4.0589 -8.1045,10.2484 2.8992,2.8991 5.5104,3.1133 8.4947,0.6967 z m -199.2637,-1.4165 c 3.0682,-2.8824 3.0096,-7.2215 -0.14,-10.3712 -2.9947001,-2.9947 -4.4969001,-3.0672 -7.9106001,-0.3819 -4.8997,3.854 -2.40759999,12.9274 3.5506,12.9274 1.2021,0 3.2271,-0.9784 4.5000001,-2.1743 z m -367.1855,-27.4998 c -19.2044,-2.3965 -38.8512,-11.303 -43.1129,-19.5443 -2.009,-3.885 -1.9856,-10.7235 0.05,-14.6603 2.0417,-3.9483 8.7979,-7.5243 12.73,-6.7378 1.5799,0.316 5.8405,2.3645 9.4679,4.5523 15.1917,9.1626 37.2415,12.7013 49.8192,7.9954 15.0116,-5.6166 19.4229,-21.1251 8.5993,-30.2325 -3.4936,-2.9398 -15.4457,-7.7444 -26.7194,-10.741 -26.0553,-6.9256 -39.7639,-14.2583 -46.4932,-24.8693 -3.8033,-5.9971 -5.0649,-10.978 -5.0885,-20.0884 -0.05,-19.2923 9.9029,-32.7878 30.3032,-41.0897 23.6181,-9.6115 61.5002,-3.4473 71.8764,11.6957 3.4783,5.0763 2.5297,11.6661 -2.319,16.1097 -4.6358,4.2483 -8.9872,4.3518 -15.9915,0.3801 -2.8169,-1.5973 -8.2717,-3.8688 -12.1217,-5.0478 -16.9457,-5.1891 -32.8325,-3.1506 -39.9132,5.1216 -3.8869,4.541 -5.1648,8.9359 -4.1583,14.301 1.5012,8.0021 9.5699,12.9934 30.5715,18.9115 31.4878,8.8731 42.0862,14.3771 49.1589,25.5295 3.7932,5.9813 5.0126,10.8224 5.0436,20.0239 0.068,20.3253 -10.3092,35.0335 -30.5259,43.2644 -10.8402,4.4134 -28.8858,6.6599 -41.1766,5.126 z m 60.4345,-45.0759 c 5.7356,-4.6552 0.4383,-14.863 -6.3697,-12.2746 -4.7222,1.7954 -5.8794,7.0837 -2.4922,11.3897 2.4072,3.0603 5.7682,3.3959 8.8619,0.8849 z m -4.9345,-87.25 c 2.6756,-2.6756 2.593,-7.7399 -0.1743,-10.6855 -2.7929,-2.9729 -5.3002,-2.9309 -8.3712,0.14 -3.0519,3.052 -3.1645,7.1609 -0.2802,10.231 2.6723,2.8445 6.171,2.9692 8.8257,0.3145 z m 393.5,128.851 c -41.117,-4.6058 -64.6539,-35.0297 -62.162,-80.351 1.2152,-22.1024 9.3168,-40.5584 23.6146,-53.7957 7.6516,-7.0839 17.5351,-12.933 26.3992,-15.6229 9.6187,-2.9189 10.8561,-3.1244 22.694,-3.7701 13.4773,-0.7351 24.3729,1.3399 35.4542,6.7519 19.4031,9.4763 26.7328,20.36 20.22,30.0243 -2.905,4.3108 -6.0485,5.8793 -11.82,5.8978 -3.6699,0.012 -5.4538,-0.6424 -8.8235,-3.2353 -13.0301,-10.0265 -15.7895,-11.2778 -26.5765,-12.0516 -22.1469,-1.5885 -40.9693,8.136 -49.3804,25.5123 -11.861,24.5035 -4.9124,55.3619 15.3804,68.3038 8.0747,5.1497 14.6473,6.8922 26,6.8929 11.6729,7e-4 19.3691,-2.2352 28.2741,-8.214 13.6865,-9.1891 14.7609,-9.4956 21.9096,-6.25 5.6967,2.5864 7.857,7.1345 7.4223,15.6266 -0.2566,5.0121 -12.375,15.2003 -23.1161,19.434 -11.7698,4.6392 -30.0021,6.5819 -45.4899,4.847 z m -44.1349,-63.9236 c 6.089,-4.7895 0.693,-14.851 -6.3909,-11.9167 -4.9407,2.0465 -5.6596,9.4014 -1.2451,12.7393 2.3692,1.7914 4.6213,1.5488 7.636,-0.8226 z m 100.4249,-52.5682 c 1.2596,-0.3374 2.9703,-1.9287 3.8016,-3.5363 3.9356,-7.6107 -5.3113,-14.8086 -10.519,-8.188 -2.7494,3.4952 -2.6177,6.9109 0.3819,9.9106 2.6575,2.6574 2.913,2.7306 6.3355,1.8137 z m -398.3226,112.6431 c -2.2179,-1.0979 -4.8857,-3.4404 -5.9285,-5.2056 -2.0752,-3.5131 -2.1731,-9.4757 -1.0393,-63.2967 1.5498,-73.5694 1.4523,-72.4323 6.6215,-77.189 4.0118,-3.6916 9.6943,-4.2339 40.3789,-3.8533 25.065,0.3109 29.9109,0.6238 35.7128,2.3064 22.637,6.5647 35.643,25.151 35.7521,51.0916 0.065,15.3656 -4.3897,27.1165 -14.3442,37.8413 -6.6591,7.1745 -18.1852,13.5894 -27.5072,15.3092 -2.9626,0.5466 -15.0001,0.9938 -26.75,0.9938 -11.7499,0 -21.4143,0.1125 -21.4764,0.25 -0.062,0.1375 -0.4035,7.903 -0.7587,17.2567 -0.5992,15.781 -0.818,17.2487 -3.0357,20.3632 -2.4807,3.4837 -7.3652,6.1307 -11.3106,6.1293 -1.2552,-4e-4 -4.0968,-0.899 -6.3147,-1.9969 z m 10.5326,-8.0023 c 4.1824,-4.1824 1.428,-12 -4.228,-12 -4.1947,0 -6.772,2.5327 -6.772,6.655 0,4.0086 2.9526,7.345 6.5,7.345 1.375,0 3.4,-0.9 4.5,-2 z m 54.7079,-61.9194 c 9.6829,-2.6119 19.2921,-14.8084 19.2921,-24.4865 0,-10.6116 -6.2992,-21.1422 -15.4551,-25.8366 -3.6785,-1.886 -5.9305,-2.087 -24.8578,-2.2184 -11.4471,-0.08 -20.9541,0.1042 -21.1267,0.4082 -0.1726,0.304 -0.6215,12.352 -0.9976,26.7733 l -0.6838,26.2205 13.3105,0.2795 c 19.0385,0.3997 25.7386,0.1494 30.5184,-1.14 z m 35.6078,-16.2303 c 2.9183,-1.5361 3.6508,-2.7909 3.669,-6.2859 0.018,-3.4399 -3.4414,-7.5644 -6.3446,-7.5644 -3.0396,0 -6.6401,3.9148 -6.6401,7.2198 0,1.715 0.9883,3.8595 2.4545,5.3257 2.7621,2.762 3.7396,2.9479 6.8612,1.3048 z m 17.7692,84.7664 c -2.8136,-2.9269 -3.4932,-4.4953 -3.8589,-8.9053 -0.4912,-5.9224 -2.6567,-1.3912 29.2537,-61.2114 6.1612,-11.55 13.7114,-25.725 16.7781,-31.5 3.0668,-5.775 7.4071,-13.875 9.6452,-18 2.2381,-4.125 5.538,-10.3884 7.3331,-13.9187 4.0284,-7.9221 7.7191,-11.7229 12.681,-13.059 5.2868,-1.4236 9.7997,-0.2751 13.2689,3.3767 2.398,2.5243 17.7293,32.9577 34.8106,69.101 1.5595999,3.3 8.7232999,18.1365 15.9194999,32.9699 8.9525001,18.454 13.0839001,28.0474 13.0839001,30.382 0,7.2745 -7.5866001,14.1481 -15.6158001,14.1481 -5.9917,0 -9.2349,-3.3599 -15.2342999,-15.7827 l -5.3379,-11.053 -39.8228,0.1679 c -21.9025,0.092 -40.0335,0.3928 -40.2911,0.6678 -0.2576,0.275 -2.7237,5 -5.4801,10.5 -6.621,13.2109 -8.4296,14.8375 -17.0167,15.3047 -6.5624,0.357 -6.7721,0.2909 -10.1164,-3.188 z m 140.3583999,-6.8392 c 3.6534001,-5.2159 0.8445,-11.7775 -5.0416,-11.7775 -3.82939999,0 -6.4017,2.9021 -6.4017,7.2225 0,5.987 8.1641,9.2367 11.4433,4.555 z m -42.7418999,-46.0275 c -3.0463,-7.4282 -22.1633,-50.4427 -22.6807,-51.0328 -0.3775,-0.4306 -2.9363,3.6194 -5.6862,9 -2.7499,5.3805 -8.9347,17.3203 -13.744,26.5328 l -8.7442,16.75 25.6838,0 c 20.1538,0 25.5735,-0.2691 25.1713,-1.25 z m -809.2014,54.296 c -4.3593,-1.8031 -8.5,-8.3551 -8.5,-13.4497 0,-2.4353 7.0011,-17.3111 14.215,-30.2036 2.4289,-4.341 15.5669,-28.8573 29.1955,-54.4808 22.7375,-42.7493 25.1176,-46.8074 28.8846,-49.25 5.0897,-3.3002 10.6236,-3.4933 15.4062,-0.5375 2.8671,1.772 4.8578,5.0486 11.9992,19.75 4.709,9.6941 12.8307,26.4006 18.0482,37.1256 5.2175,10.725 12.6346,26.025 16.4824,34 3.8478,7.975 9.7121,20.125 13.0318,27 6.836,14.1573 7.5496,18.6459 3.8009,23.9103 -2.9082,4.0843 -7.2769,6.2585 -12.741,6.3411 -6.6145,0.1 -9.0484,-2.3003 -15.2797,-15.0693 l -5.4568,-11.1821 -40.083,0 -40.0831,0 -4.9334,10.0269 c -2.7134,5.5148 -6.1044,11.1486 -7.5354,12.5197 -4.0451,3.8755 -11.6377,5.4905 -16.4514,3.4994 z m 11.0117,-10.0589 c 3.9391,-4.3527 1.0132,-11.9871 -4.5941,-11.9871 -3.1735,0 -6.9176,4.0119 -6.9176,7.4124 0,5.9632 7.5425,8.9606 11.5117,4.5747 z m 82.4883,-44.9322 c 0,-0.4802 -3.1967,-8.2264 -7.1037,-17.2139 -3.9071,-8.9876 -8.9121,-20.5035 -11.1224,-25.591 -2.2103,-5.0875 -4.3011,-9.2492 -4.6463,-9.2483 -0.3452,9e-4 -3.8889,6.4134 -7.875,14.25 -3.986,7.8365 -9.9485,19.3727 -13.25,25.6358 -3.3014,6.2631 -6.0026,11.7167 -6.0026,12.1192 0,0.4024 11.25,0.7743 25,0.8264 13.75,0.052 25,-0.2981 25,-0.7782 z m 81,54.9379 c -5.1045,-0.9079 -7.7652,-2.638 -9.6439,-6.271 -1.5401,-2.9783 -1.5725,-8.0421 -0.4331,-67.7204 1.3633,-71.4044 1.122,-69.1738 7.9749,-73.7382 6.3174,-4.2078 16.5189,-2.2254 19.6437,3.8172 1.4571,2.8179 1.6547,6.753 1.5224,30.3288 -0.084,14.8999 -0.4061,28.1033 -0.7165,29.3408 -0.3104,1.2375 -0.1099,2.25 0.4454,2.25 0.5554,0 14.8917,-14.188 31.8584,-31.5288 16.9668,-17.3408 32.5312,-32.6986 34.5876,-34.1283 9.01,-6.2643 21.7611,0.7775 21.7611,12.0176 0,4.6432 -3.3429,8.684 -27.2937,32.9925 l -19.5608,19.853 11.4866,14.147 c 41.7825,51.4596 42.1028,51.9159 40.9108,58.2698 -0.7702,4.1059 -5.3888,8.8412 -10.1586,10.4154 -4.1015,1.3536 -10.7013,0.7735 -13.0113,-1.1436 -1.5348,-1.2737 -42.7279,-54.2144 -47.1989,-60.6593 -1.2793,-1.844 -2.8844,-3.2138 -3.5669,-3.044 -0.6825,0.1698 -5.4859,4.9525 -10.6741,10.6283 -10.8107,11.8266 -10.6572,11.3665 -10.8342,32.4801 -0.1018,12.1444 -0.9376,15.464 -4.7465,18.8533 -2.5734,2.2898 -8.1878,3.5806 -12.3524,2.8398 z m 8,-7.9928 c 4.1983,-4.1983 1.1613,-12 -4.6713,-12 -1.4692,0 -3.4942,0.7447 -4.5,1.655 -2.312,2.0923 -2.4103,8.0448 -0.1737,10.5163 2.1836,2.4128 6.8463,2.3274 9.345,-0.1713 z m 89.6855,-125.1743 c 5.7176,-5.3714 0.1528,-14.0123 -7.3844,-11.4662 -4.0732,1.376 -4.777,8.7789 -1.1304,11.8905 2.7562,2.3518 5.7168,2.2043 8.5148,-0.4243 z m 45.7632,132.6436 c -4.1151,-2.0589 -6.6579,-6.689 -6.7641,-12.3163 -0.1128,-5.9744 1.5157,-97.84 1.793,-101.153 0.1152,-1.375 0.2798,-7.496 0.3659,-13.6021 0.1376,-9.7587 0.4333,-11.5133 2.4438,-14.5 4.0524,-6.02 3.5117,-5.9566 50.679,-5.9418 50.6884,0.016 49.3598,-0.2434 52.1465,10.1758 1.0931,4.0869 0.9981,5.0075 -0.9262,8.9827 -4.0402,8.3459 -4.0648,8.3509 -41.6866,8.5857 -18.15,0.1132 -33.3375,0.227 -33.75,0.2528 -0.4125,0.026 -0.75,7.2469 -0.75,16.0469 l 0,16 28.75,0 c 32.9492,0 34.103,0.2367 37.8777,7.7121 1.786,3.5371 1.9864,4.97 1.2477,8.9238 -0.4839,2.5905 -1.6664,5.594 -2.6277,6.6743 -3.857,4.3344 -6.6623,4.6878 -37.2156,4.6878 l -29.0321,0 0,16.5 0,16.5 34.5321,0 c 27.7916,0 35.2048,0.2811 37.9781,1.4398 9.1038,3.8038 10.1908,18.4686 1.7909,24.1617 -2.6354,1.7862 -5.4929,1.9132 -48.3011,2.1465 -39.141,0.2133 -45.9265,0.035 -48.5513,-1.2787 z m 93.6405,-6.3405 c 4.7918,-3.8801 1.8011,-13.1288 -4.2454,-13.1288 -2.7752,0 -6.8438,4.4588 -6.8438,7.5 0,3.0412 4.0686,7.5 6.8438,7.5 1.064,0 2.9745,-0.842 4.2454,-1.8712 z m -77.5438,-62.5833 c 1.35,-1.35 2.4546,-3.6205 2.4546,-5.0455 0,-2.9865 -4.0514,-7.5 -6.732,-7.5 -1.0027,0 -2.8231,0.7005 -4.0455,1.5567 -3.8628,2.7056 -2.6849,11.1545 1.7775,12.7493 2.8528,1.0196 4.1011,0.6838 6.5454,-1.7605 z m 700.439,68.5914 c -1.9164,-1.0247 -4.2879,-3.2311 -5.2698,-4.9031 -1.6886,-2.8749 -1.7296,-5.8541 -0.7555,-54.8869 1.7325,-87.2038 1.2107,-81.4346 7.7296,-85.4635 3.2369,-2.0006 4.7282,-2.0711 46.0783,-2.1796 39.8852,-0.1047 42.9911,0.013 46.606,1.7643 6.5191,3.1586 8.6606,13.2531 4.242,19.9967 -3.6345,5.547 -5.0157,5.7411 -41.2688,5.7974 l -33.3462,0.052 -0.045,3.593 c -0.025,1.9762 -0.2963,9.3059 -0.6039,16.2884 l -0.5592,12.6953 30.3538,0.3047 c 27.3277,0.2742 30.6195,0.4849 33.0177,2.1132 8.0153,5.4418 7.3353,19.391 -1.1638,23.873 -1.8398,0.9702 -10.416,1.4504 -32.4752,1.8184 l -29.9752,0.5 -0.3701,16.2141 -0.3701,16.2141 36.5235,0.2859 c 35.2512,0.2759 36.6217,0.3587 39.3452,2.3765 8.5205,6.3124 5.7139,21.5399 -4.4924,24.3746 -2.2496,0.6248 -20.446,1.0258 -46.7013,1.0292 -40.0547,0 -43.2554,-0.1226 -46.5,-1.8575 z m 92.5611,-6.5914 c 1.35,-1.35 2.4545,-3.5394 2.4545,-4.8652 0,-3.4159 -3.6493,-7.6803 -6.5726,-7.6803 -6.1733,0 -8.8083,8.982 -3.7925,12.9274 3.4137,2.6853 4.9159,2.6128 7.9106,-0.3819 z m -75.3742,-0.2005 c 2.4742,-2.2391 2.3823,-7.7914 -0.1713,-10.345 -6.0082,-6.0082 -14.4082,2.6891 -9.4433,9.7775 1.8888,2.6966 6.9329,2.9944 9.6146,0.5675 z m -1222.07569,5.082 c -4.5037,-3.7897 -5.4098,-8.5812 -4.7138,-24.927 0.3279,-7.7 0.8372,-31.1 1.1318,-52 0.6033,-42.7926 1.2749,-59.8136 2.486,-62.9989 1.0664,-2.8049 6.4354,-7.3212 9.6681,-8.1325 3.7988,-0.9535 9.52329,1.1897 12.96819,4.8551 1.6935,1.802 11.5307,14.9763 21.8605,29.2763 10.3297,14.3 20.6571,28.5552 22.9497,31.6783 l 4.1682,5.6782 2.9429,-3.6745 c 1.6185,-2.0209 10.485,-13.5761 19.7033,-25.6782 9.2183,-12.1021 19.5683,-25.6782 23,-30.169 3.4317,-4.4909 7.4339,-8.8784 8.8938,-9.75 3.9451,-2.3555 10.8871,-2.0304 14.9478,0.6998 5.4133,3.6398 5.9774,6.6289 5.4191,28.7154 -0.2711,10.725 -0.7365,35.475 -1.0342,55 -0.8486,55.6481 -1.0181,57.1262 -7.1019,61.9117 -3.2718,2.5736 -10.3754,2.7978 -14.3453,0.4528 -1.5228,-0.8996 -3.5673,-2.9874 -4.5433,-4.6397 -1.6566,-2.8044 -1.726,-5.8324 -1.044,-45.5569 l 0.7306,-42.5529 -10.1495,12.4425 c -5.5822,6.8434 -13.3859,16.4925 -17.3416,21.4425 -13.1163,16.4136 -17.9406,19.9093 -25.0229,18.1318 -4.5518,-1.1424 -7.8098,-4.9953 -23.9078,-28.2731 l -16.2613,-23.5139 -0.2737,6.3276 c -0.1505,3.4802 -0.6087,22.3026 -1.0181,41.8276 -0.6887,32.8357 -0.8933,35.751 -2.7264,38.8452 -4.1836,7.0616 -15.54609,9.4959 -21.38619,4.5818 z m 134.90439,-5.427 c 2.9777,-2.9777 2.6667,-8.3304 -0.6349,-10.9274 -3.4137,-2.6853 -4.9159,-2.6128 -7.9106,0.3819 -4.5792,4.5793 -2.0104,12.5455 4.0455,12.5455 1.375,0 3.4,-0.9 4.5,-2 z m -119.4545,-122.4545 c 1.4077,-1.4077 2.4545,-3.6193 2.4545,-5.1856 0,-3.4049 -3.5866,-7.3599 -6.67429,-7.3599 -6.0828,0 -8.6581,9.0202 -3.6908,12.9274 3.4137,2.6853 4.9159,2.6128 7.91059,-0.3819 z m 1252.1176,-37.1733 c -0.09,-0.07 -190.5131,-0.4122 -423.1631,-0.76 -746.4948,-1.1157 -836.43379,-1.4675 -840.69669,-3.2886 -8.3818,-3.5808 -8.9534,-16.5929 -0.9671,-22.015 2.559,-1.7374 15.75089,-1.796 335.16379,-1.4888 182.875,0.1758 377.5,0.5018 432.5,0.7244 55,0.2226 195.625,0.4329 312.5,0.4674 120.8633,0.036 214.185,0.4478 216.4075,0.9557 2.1491,0.4912 5.0741,2.0597 6.5,3.4856 2.2098,2.2099 2.5925,3.472 2.5925,8.5506 0,5.3936 -0.3093,6.2677 -3.2656,9.2273 l -3.2656,3.2692 -17.0713,0.5 c -9.3892,0.275 -17.1447,0.4425 -17.2344,0.3722 z m -1019.6072,-7.2164 c 4.7674,-3.8604 1.5656,-12.4058 -4.6483,-12.4058 -3.223,0 -6.4076,3.3428 -6.4076,6.7259 0,3.2072 3.7074,7.5241 6.4618,7.5241 1.2741,0 3.3415,-0.8299 4.5941,-1.8442 z m 717.4895,-0.6103 c 1.35,-1.35 2.4546,-3.5394 2.4546,-4.8652 0,-3.3409 -3.6509,-7.6803 -6.4618,-7.6803 -7.7007,0 -9.339,11.1032 -2.0729,14.0485 3.0627,1.2414 3.4253,1.1518 6.0801,-1.503 z m 329.382,-1.1804 c 4.8078,-6.112 -0.034,-13.6182 -7.1782,-11.1278 -4.2158,1.4696 -5.4399,8.237 -2.1479,11.8746 2.4987,2.761 6.8404,2.4134 9.3261,-0.7468 z m -848.9664,-0.5537 c 5.6754,-6.0918 -1.8467,-15.8355 -8.3039,-10.7563 -3.1444,2.4733 -3.6589,8.1805 -1.0021,11.1162 2.257,2.4939 6.8114,2.3178 9.306,-0.3599 z m -426.961,-0.8114 c 5.8469,-5.8469 -1.9014,-16.0118 -8.34289,-10.9449 -5.0711,3.9889 -2.4124,12.9449 3.84289,12.9449 1.375,0 3.4,-0.9 4.5,-2 z m 695.4433,-0.2225 c 3.559,-5.0812 0.8472,-11.7775 -4.7696,-11.7775 -4.0042,0 -6.6737,2.573 -6.6737,6.4325 0,4.6943 2.4679,7.5675 6.5,7.5675 2.366,0 3.8557,-0.6698 4.9433,-2.2225 z"
       id="path3039"
       inkscape:connector-curvature="0" />
  </g>
</svg>
